<?xml version="1.0" encoding="utf-8"?>
<!-- Generator: Adobe Illustrator 27.5.0, SVG Export Plug-In . SVG Version: 6.00 Build 0)  -->
<svg version="1.1" id="Layer_1" xmlns="http://www.w3.org/2000/svg" xmlns:xlink="http://www.w3.org/1999/xlink" x="0px" y="0px"
	 viewBox="0 0 273.6 122.4" style="enable-background:new 0 0 273.6 122.4;" xml:space="preserve">
<style type="text/css">
	.st0{fill:#EB1700;}
</style>
<path class="st0" d="M233.98,117.69c25.78,0,35.81-15.44,35.81-35.65V7.18h-19.14v79.8c0,12.96-4.94,20.68-16.67,20.68
	c-11.58,0-16.67-8.18-16.67-22.23V70.62l-19.14,4.78v6.64C198.17,102.26,208.2,117.69,233.98,117.69 M132.11,106.42
	c-14.82,0-23.92-12.04-23.92-24.85c0-8.03,3.55-15.44,9.41-19.6l34.88,38.12C146,103.95,138.74,106.42,132.11,106.42 M150.78,51.17
	c12.5,0,20.22,7.25,20.22,19.76c0,5.56-1.54,11.27-4.94,16.52L135.81,54.1C141.21,51.94,146.46,51.17,150.78,51.17 M132.11,12.89
	c9.11,0,14.51,5.25,14.51,14.82c0,8.8-4.32,17.13-14.97,21.92l-6.64-7.41c-5.87-6.48-7.56-10.5-7.56-15.28
	C117.44,17.98,123.15,12.89,132.11,12.89 M170.85,92.69c8.34-9.88,13.12-20.68,13.12-30.1c0-11.73-7.87-19.6-20.22-19.6
	c-6.48,0-13.74,1.85-18.52,3.7l-0.31-0.62c11.73-6.33,16.67-12.19,16.67-20.37c0-11.73-10.5-20.99-29.02-20.99
	c-21.3,0-31.8,11.89-31.8,26.7c0,8.03,3.4,16.05,12.35,25.78l0.15,0.31C98.15,64.75,91.2,76.48,91.2,88.52
	c0,15.9,12.19,29.17,31.02,29.17c10.8,0,23.46-4.48,34.88-12.5l9.26,10.03h24.23v-0.77L170.85,92.69z M39.62,117.69
	c25.78,0,35.81-15.44,35.81-35.65V7.18H56.29v79.8c0,12.96-4.94,20.68-16.67,20.68c-11.58,0-16.67-8.18-16.67-22.23V70.62L3.81,75.4
	v6.64C3.81,102.26,13.84,117.69,39.62,117.69"/>
</svg>
